<svg xmlns="http://www.w3.org/2000/svg" enable-background="new 0 0 2010.5 1130.9" preserveAspectRatio="xMidYMid slice" version="1.1" viewBox="0 0 2010.5 1130.9" xml:space="preserve"><style type="text/css">.sk_4_0{fill:url(#sky_a)}.sk_4_1{fill:#f9f9f9}</style><switch><g><linearGradient id="sky_a" x1="1005.3" x2="1005.3" y1="7.6" y2="1124.3" gradientUnits="userSpaceOnUse"><stop offset="0" stop-color="#1C1F34"/><stop offset="1" stop-color="#5D455A"/></linearGradient><rect width="2010.5" height="1130.9" class="sk_4_0"/><path d="m633 134.9c9 0 9-14 0-14s-9.1 14 0 14z" class="sk_4_1"/><path d="m811.7 242.4c3.9 0 3.9-6 0-6s-3.9 6 0 6z" class="sk_4_1"/><path d="m1178.3 375.3c3.9 0 3.9-6 0-6-3.8 0-3.8 6 0 6z" class="sk_4_1"/><path d="m1361.6 120.2c3.9 0 3.9-6 0-6-3.8 0-3.8 6 0 6z" class="sk_4_1"/><path d="m1357.1 647.2c3.9 0 3.9-6 0-6s-3.9 6 0 6z" class="sk_4_1"/><path d="m376.3 262.3c3.9 0 3.9-6 0-6-3.8 0-3.8 6 0 6z" class="sk_4_1"/><path d="m194.5 491.4c3.9 0 3.9-6 0-6-3.8 0-3.8 6 0 6z" class="sk_4_1"/><path d="m610.1 360c3.9 0 3.9-6 0-6s-3.9 6 0 6z" class="sk_4_1"/><path d="m941.5 529.6c3.9 0 3.9-6 0-6-3.8 0-3.8 6 0 6z" class="sk_4_1"/><path d="m1638.1 559.2c2.6 0 2.6-4 0-4-2.5 0-2.5 4 0 4z" class="sk_4_1"/><path d="m1428.9 382c2.6 0 2.6-4 0-4s-2.6 4 0 4z" class="sk_4_1"/><path d="m975.2 162c0.6 0 0.6-1 0-1-0.7 0-0.7 1 0 1z" class="sk_4_1"/><path d="m969 328.5c0.6 0 0.6-1 0-1s-0.6 1 0 1z" class="sk_4_1"/><path d="m1088.2 266.9c1.9 0 1.9-3 0-3s-1.9 3 0 3z" class="sk_4_1"/><path d="m975.2 163c1.9 0 1.9-3 0-3-2 0-2 3 0 3z" class="sk_4_1"/><path d="m1031.7 400.8c1.3 0 1.3-2 0-2s-1.3 2 0 2z" class="sk_4_1"/><path d="m645.2 338.2c1.3 0 1.3-2 0-2s-1.3 2 0 2z" class="sk_4_1"/><path d="m429.8 124.3c1.3 0 1.3-2 0-2s-1.3 2 0 2z" class="sk_4_1"/><path d="m1059.2 623.9c1.3 0 1.3-2 0-2s-1.3 2 0 2z" class="sk_4_1"/><path d="m932.4 733.8c1.3 0 1.3-2 0-2s-1.3 2 0 2z" class="sk_4_1"/><path d="m1871.9 726.2c1.3 0 1.3-2 0-2s-1.3 2 0 2z" class="sk_4_1"/><path d="m1946.7 443.6c1.3 0 1.3-2 0-2s-1.3 2 0 2z" class="sk_4_1"/><path d="m1832.1 315.3c1.3 0 1.3-2 0-2-1.2 0-1.2 2 0 2z" class="sk_4_1"/><path d="m1771 494c1.3 0 1.3-2 0-2s-1.3 2 0 2z" class="sk_4_1"/><path d="m1972.7 472.6c1.3 0 1.3-2 0-2s-1.3 2 0 2z" class="sk_4_1"/><path d="m1997.1 255.7c1.3 0 1.3-2 0-2s-1.3 2 0 2z" class="sk_4_1"/><path d="m1786.3 280.1c1.3 0 1.3-2 0-2s-1.3 2 0 2z" class="sk_4_1"/><path d="m1563.3 779.7c1.3 0 1.3-2 0-2s-1.3 2 0 2z" class="sk_4_1"/><path d="m1719.1 381c1.3 0 1.3-2 0-2s-1.3 2 0 2z" class="sk_4_1"/><path d="m1777.1 674.3c1.3 0 1.3-2 0-2-1.2 0-1.2 2 0 2z" class="sk_4_1"/><path d="m1237.9 875.9c1.3 0 1.3-2 0-2s-1.3 2 0 2z" class="sk_4_1"/><path d="m434.4 501.6c1.3 0 1.3-2 0-2s-1.3 2 0 2z" class="sk_4_1"/><path d="m240.4 98.4c1.3 0 1.3-2 0-2s-1.3 2 0 2z" class="sk_4_1"/><path d="m151.8 310.7c1.3 0 1.3-2 0-2s-1.3 2 0 2z" class="sk_4_1"/><path d="m995 119.7c1.3 0 1.3-2 0-2s-1.3 2 0 2z" class="sk_4_1"/><path d="m1198.2 313.7c1.3 0 1.3-2 0-2s-1.3 2 0 2z" class="sk_4_1"/><path d="m1219.6 387.1c1.3 0 1.3-2 0-2s-1.3 2 0 2z" class="sk_4_1"/><path d="m1178.3 437.5c1.3 0 1.3-2 0-2s-1.3 2 0 2z" class="sk_4_1"/><path d="m1170.7 532.2c1.3 0 1.3-2 0-2s-1.3 2 0 2z" class="sk_4_1"/><path d="m1375.4 463.5c1.3 0 1.3-2 0-2s-1.3 2 0 2z" class="sk_4_1"/><path d="m1577 587.2c1.3 0 1.3-2 0-2s-1.3 2 0 2z" class="sk_4_1"/><path d="m1780.2 212.9c1.3 0 1.3-2 0-2s-1.3 2 0 2z" class="sk_4_1"/><path d="m1862.7 222.1c1.3 0 1.3-2 0-2s-1.3 2 0 2z" class="sk_4_1"/><path d="m1925.3 277.6c1.9 0 1.9-3 0-3s-1.9 3 0 3z" class="sk_4_1"/><path d="m1821.4 434.9c1.9 0 1.9-3 0-3s-1.9 3 0 3z" class="sk_4_1"/><path d="m1732.8 283.7c1.9 0 1.9-3 0-3s-1.9 3 0 3z" class="sk_4_1"/><path d="m1427.3 474.6c1.9 0 1.9-3 0-3s-1.9 3 0 3z" class="sk_4_1"/><path d="m1366.2 336.1c2.6 0 2.6-4 0-4s-2.6 4 0 4z" class="sk_4_1"/><path d="m1841.3 533.2c2.6 0 2.6-4 0-4s-2.6 4 0 4z" class="sk_4_1"/><path d="m1989.5 293.4c2.6 0 2.6-4 0-4s-2.6 4 0 4z" class="sk_4_1"/><path d="m1972.7 125.3c2.6 0 2.6-4 0-4s-2.6 4 0 4z" class="sk_4_1"/><path d="m1312.8 197.1c2.6 0 2.6-4 0-4s-2.6 4 0 4z" class="sk_4_1"/><path d="m1071.4 569.9c2.6 0 2.6-4 0-4s-2.6 4 0 4z" class="sk_4_1"/><path d="m243.4 646.2c2.6 0 2.6-4 0-4-2.5 0-2.5 4 0 4z" class="sk_4_1"/><path d="m422.2 323.9c2.6 0 2.6-4 0-4s-2.6 4 0 4z" class="sk_4_1"/><path d="m1147.8 817.3c2.6 0 2.6-4 0-4s-2.6 4 0 4z" class="sk_4_1"/><path d="m836.1 514.9c2.6 0 2.6-4 0-4-2.5 0-2.5 4 0 4z" class="sk_4_1"/><path d="m655.9 487.4c2.6 0 2.6-4 0-4s-2.6 4 0 4z" class="sk_4_1"/><path d="m663.5 670.7c2.6 0 2.6-4 0-4-2.5 0-2.6 4 0 4z" class="sk_4_1"/><path d="m720 777.6c2.6 0 2.6-4 0-4-2.5 0-2.5 4 0 4z" class="sk_4_1"/><path d="m348.8 825c2.6 0 2.6-4 0-4-2.5 0-2.5 4 0 4z" class="sk_4_1"/><path d="m454.2 605c2.6 0 2.6-4 0-4-2.5 0-2.5 4 0 4z" class="sk_4_1"/><path d="m565.8 487.4c2.6 0 2.6-4 0-4s-2.6 4 0 4z" class="sk_4_1"/><path d="m1222.6 505.7c2.6 0 2.6-4 0-4-2.5 0-2.6 4 0 4z" class="sk_4_1"/><path d="m1338.7 515.9c1.9 0 1.9-3 0-3s-1.9 3 0 3z" class="sk_4_1"/><path d="m1532.7 708.4c1.9 0 1.9-3 0-3s-1.9 3 0 3z" class="sk_4_1"/><path d="m1635.1 396.7c1.9 0 1.9-3 0-3-2 0-2 3 0 3z" class="sk_4_1"/><path d="m827 230.2c1.9 0 1.9-3 0-3-2 0-2 3 0 3z" class="sk_4_1"/><path d="m796.4 121.8c1.9 0 1.9-3 0-3s-1.9 3 0 3z" class="sk_4_1"/><path d="m469.5 346.3c1.9 0 1.9-3 0-3s-1.9 3 0 3z" class="sk_4_1"/><path d="m937 347.9c1.9 0 1.9-3 0-3-2 0-2 3 0 3z" class="sk_4_1"/><path d="m1572.4 419.7c1.9 0 1.9-3 0-3s-1.9 3 0 3z" class="sk_4_1"/><path d="m1500.7 786.3c1.9 0 1.9-3 0-3-2 0-2 3 0 3z" class="sk_4_1"/><path d="m1632 378.4c1.9 0 1.9-3 0-3s-1.9 3 0 3z" class="sk_4_1"/><path d="m1548 781.7c1.9 0 1.9-3 0-3s-1.9 3 0 3z" class="sk_4_1"/><path d="m1694.7 737.4c1.9 0 1.9-3 0-3-2 0-2 3 0 3z" class="sk_4_1"/><path d="m1821.4 407.4c1.9 0 1.9-3 0-3s-1.9 3 0 3z" class="sk_4_1"/><path d="m1163.1 86.6c1.9 0 1.9-3 0-3-2 0-2 3 0 3z" class="sk_4_1"/><path d="m952.2 20.9c1.9 0 1.9-3 0-3s-1.9 3 0 3z" class="sk_4_1"/><path d="m935.4 88.2c1.9 0 1.9-3 0-3s-1.9 3 0 3z" class="sk_4_1"/><path d="m729.2 52c2.6 0 2.6-4 0-4s-2.6 4 0 4z" class="sk_4_1"/><path d="m1354 65.7c2.6 0 2.6-4 0-4s-2.6 4 0 4z" class="sk_4_1"/><path d="m1566.3 55.1c2.6 0 2.6-4 0-4-2.5 0-2.5 4 0 4z" class="sk_4_1"/><path d="m1127.9 195.6c2.6 0 2.6-4 0-4s-2.6 4 0 4z" class="sk_4_1"/><path d="m1286.8 84.1c2.6 0 2.6-4 0-4s-2.6 4 0 4z" class="sk_4_1"/><path d="m1014.9 59.6c2.6 0 2.6-4 0-4s-2.6 4 0 4z" class="sk_4_1"/><path d="m1076 32.1c2.6 0 2.6-4 0-4s-2.6 4 0 4z" class="sk_4_1"/><path d="m567.3 61.2c2.6 0 2.6-4 0-4s-2.6 4 0 4z" class="sk_4_1"/><path d="m131.9 53.5c2.6 0 2.6-4 0-4s-2.6 4 0 4z" class="sk_4_1"/><path d="m78.5 61.2c2.6 0 2.6-4 0-4s-2.6 4 0 4z" class="sk_4_1"/><path d="m61.6 155.9c2.6 0 2.6-4 0-4-2.5 0-2.5 4 0 4z" class="sk_4_1"/><path d="m148.7 111.1c1.9 0 1.9-3 0-3s-1.9 3 0 3z" class="sk_4_1"/><path d="m466.5 35.7c3.2 0 3.2-5 0-5-3.3 0-3.3 5 0 5z" class="sk_4_1"/><path d="m729.2 174.7c3.2 0 3.2-5 0-5s-3.2 5 0 5z" class="sk_4_1"/><path d="m813.2 199.1c3.2 0 3.2-5 0-5s-3.2 5 0 5z" class="sk_4_1"/><path d="m875.9 220.5c3.2 0 3.2-5 0-5-3.3 0-3.3 5 0 5z" class="sk_4_1"/><path d="m1396.8 194.6c3.2 0 3.2-5 0-5s-3.2 5 0 5z" class="sk_4_1"/><path d="m911 393.2c3.2 0 3.2-5 0-5s-3.2 5 0 5z" class="sk_4_1"/><path d="m1746.6 164c3.2 0 3.2-5 0-5s-3.2 5 0 5z" class="sk_4_1"/><path d="m1754.2 442c3.2 0 3.2-5 0-5s-3.2 5 0 5z" class="sk_4_1"/><path d="m1625.9 669.7c3.2 0 3.2-5 0-5s-3.2 5 0 5z" class="sk_4_1"/><path d="m1766.5 61.7c3.2 0 3.2-5 0-5-3.3 0-3.3 5 0 5z" class="sk_4_1"/></g></switch></svg>